HIERARCHY
ROOT Hips
{
    OFFSET 0.000 93.594 0.000
    CHANNELS 6 Xposition Yposition Zposition Yrotation Xrotation Zrotation
    JOINT RightHip
    {
        OFFSET -9.500 -1.594 0.000
        CHANNELS 3 Yrotation Xrotation Zrotation
        JOINT RightKnee
        {
            OFFSET 0.000 -42.000 0.000
            CHANNELS 3 Yrotation Xrotation Zrotation
            JOINT RightAnkle
            {
                OFFSET 0.000 -42.000 0.000
                CHANNELS 3 Yrotation Xrotation Zrotation
                End Site
                {
                    OFFSET 0.000 -8.000 17.500
                }
            }
        }
    }
    JOINT LeftHip
    {
        OFFSET 9.500 -1.594 0.000
        CHANNELS 3 Yrotation Xrotation Zrotation
        JOINT LeftKnee
        {
            OFFSET 0.000 -42.000 0.000
            CHANNELS 3 Yrotation Xrotation Zrotation
            JOINT LeftAnkle
            {
                OFFSET 0.000 -42.000 0.000
                CHANNELS 3 Yrotation Xrotation Zrotation
                End Site
                {
                    OFFSET 0.000 -8.000 17.500
                }
            }
        }
    }
    JOINT Chest
    {
        OFFSET 0.000 14.348 0.000
        CHANNELS 3 Yrotation Xrotation Zrotation
        JOINT Chest2
        {
            OFFSET 0.000 9.746 0.000
            CHANNELS 3 Yrotation Xrotation Zrotation
            JOINT Chest3
            {
                OFFSET 0.000 10.149 0.000
                CHANNELS 3 Yrotation Xrotation Zrotation
                JOINT Chest4
                {
                    OFFSET 0.000 9.746 0.000
                    CHANNELS 3 Yrotation Xrotation Zrotation
                    JOINT Neck
                    {
                        OFFSET 0.000 10.417 0.000
                        CHANNELS 3 Yrotation Xrotation Zrotation
                        JOINT Head
                        {
                            OFFSET 0.000 9.000 0.000
                            CHANNELS 3 Yrotation Xrotation Zrotation
                            End Site
                            {
                                OFFSET 0.000 16.000 0.000
                            }
                        }
                    }
                    JOINT RightCollar
                    {
                        OFFSET -3.200 6.945 0.000
                        CHANNELS 3 Yrotation Xrotation Zrotation
                        JOINT RightShoulder
                        {
                            OFFSET -12.800 0.000 0.000
                            CHANNELS 3 Yrotation Xrotation Zrotation
                            JOINT RightElbow
                            {
OFFSET -0 -27 0.000
						CHANNELS 3 Xrotation Yrotation Zrotation
                                JOINT RightWrist
                                {
OFFSET -0 -26 0.000
						CHANNELS 3 Xrotation Yrotation Zrotation
                                    JOINT RightFinger0
                                    {
OFFSET -0.196 -2.56 3.210
						CHANNELS 3 Xrotation Yrotation Zrotation
                                        JOINT RightFinger01
                                        {
OFFSET -0 -3.788 0.000
						CHANNELS 3 Xrotation Yrotation Zrotation
                                            JOINT RightFinger0Nub
                                            {
OFFSET -0 -2.631 0.000
						CHANNELS 3 Xrotation Yrotation Zrotation
                                                End Site
                                                {
OFFSET 0 -2.256 0
                                                }
                                            }
                                        }
                                    }
                                    JOINT RightFinger1
                                    {
OFFSET -0.523 -3.316 2.035
						CHANNELS 3 Xrotation Yrotation Zrotation
                                        JOINT RightFinger11
                                        {
OFFSET 0.094 -5.366 1.028
						CHANNELS 3 Xrotation Yrotation Zrotation
                                            JOINT RightFinger12
                                            {
OFFSET -0 -3.723 0.000
						CHANNELS 3 Xrotation Yrotation Zrotation
                                                JOINT RightFinger1Nub
                                                {
OFFSET -0 -2.111 0.000
						CHANNELS 3 Xrotation Yrotation Zrotation
                                                    End Site
                                                    {
OFFSET 0 -1.857 0
                                                    }
                                                }
                                            }
                                        }
                                    }
                                    JOINT RightFinger2
                                    {
OFFSET -0.532 -3.479 0.778
						CHANNELS 3 Xrotation Yrotation Zrotation
                                        JOINT RightFinger21
                                        {
OFFSET 0.086 -5.322 0.323
						CHANNELS 3 Xrotation Yrotation Zrotation
                                            JOINT RightFinger22
                                            {
OFFSET -0 -4.062 0.000
						CHANNELS 3 Xrotation Yrotation Zrotation
                                                JOINT RightFinger2Nub
                                                {
OFFSET -0 -2.547 0.000
						CHANNELS 3 Xrotation Yrotation Zrotation
                                                    End Site
                                                    {
OFFSET 0 -2.031 0
                                                    }
                                                }
                                            }
                                        }
                                    }
                                    JOINT RightFinger3
                                    {
OFFSET -0.553 -3.461 -0.133
						CHANNELS 3 Xrotation Yrotation Zrotation
                                        JOINT RightFinger31
                                        {
OFFSET 0.023 -4.767 -0.493
						CHANNELS 3 Xrotation Yrotation Zrotation
                                            JOINT RightFinger32
                                            {
OFFSET -0 -3.541 0.000
						CHANNELS 3 Xrotation Yrotation Zrotation
                                                JOINT RightFinger3Nub
                                                {
OFFSET -0 -2.456 0.000
						CHANNELS 3 Xrotation Yrotation Zrotation
                                                    End Site
                                                    {
OFFSET 0 -1.91 0
                                                    }
                                                }
                                            }
                                        }
                                    }
                                    JOINT RightFinger4
                                    {
OFFSET -0.483 -3.251 -1.236
						CHANNELS 3 Xrotation Yrotation Zrotation
                                        JOINT RightFinger41
                                        {
OFFSET 0.023 -4.259 -1.122
						CHANNELS 3 Xrotation Yrotation Zrotation
                                            JOINT RightFinger42
                                            {
OFFSET -0 -2.835 0.000
						CHANNELS 3 Xrotation Yrotation Zrotation
                                                JOINT RightFinger4Nub
                                                {
OFFSET -0 -1.792 0.000
						CHANNELS 3 Xrotation Yrotation Zrotation
                                                    End Site
                                                    {
OFFSET 0 -1.692 0
                                                    }
                                                }
                                            }
                                        }
                                    }
                                }
                            }
                        }
                    }
                    JOINT LeftCollar
                    {
                        OFFSET 3.200 6.945 0.000
                        CHANNELS 3 Yrotation Xrotation Zrotation
                        JOINT LeftShoulder
                        {
                            OFFSET 12.800 0.000 0.000
                            CHANNELS 3 Yrotation Xrotation Zrotation
                            JOINT LeftElbow
                            {
OFFSET -0 -27 0.000
						CHANNELS 3 Xrotation Yrotation Zrotation
                                JOINT LeftWrist
                                {
OFFSET -0 -26 0.000
						CHANNELS 3 Xrotation Yrotation Zrotation
                                    JOINT LeftFinger0
                                    {
OFFSET -0.196 -2.56 3.210
						CHANNELS 3 Xrotation Yrotation Zrotation
                                        JOINT LeftFinger01
                                        {
OFFSET -0 -3.788 0.000
						CHANNELS 3 Xrotation Yrotation Zrotation
                                            JOINT LeftFinger0Nub
                                            {
OFFSET -0 -2.631 0.000
						CHANNELS 3 Xrotation Yrotation Zrotation
                                                End Site
                                                {
OFFSET 0 -2.256 0
                                                }
                                            }
                                        }
                                    }
                                    JOINT LeftFinger1
                                    {
OFFSET -0.523 -3.316 2.035
						CHANNELS 3 Xrotation Yrotation Zrotation
                                        JOINT LeftFinger11
                                        {
OFFSET 0.094 -5.366 1.028
						CHANNELS 3 Xrotation Yrotation Zrotation
                                            JOINT LeftFinger12
                                            {
OFFSET -0 -3.723 0.000
						CHANNELS 3 Xrotation Yrotation Zrotation
                                                JOINT LeftFinger1Nub
                                                {
OFFSET -0 -2.111 0.000
						CHANNELS 3 Xrotation Yrotation Zrotation
                                                    End Site
                                                    {
OFFSET 0 -1.857 0
                                                    }
                                                }
                                            }
                                        }
                                    }
                                    JOINT LeftFinger2
                                    {
OFFSET -0.532 -3.479 0.778
						CHANNELS 3 Xrotation Yrotation Zrotation
                                        JOINT LeftFinger21
                                        {
OFFSET 0.086 -5.322 0.323
						CHANNELS 3 Xrotation Yrotation Zrotation
                                            JOINT LeftFinger22
                                            {
OFFSET -0 -4.062 0.000
						CHANNELS 3 Xrotation Yrotation Zrotation
                                                JOINT LeftFinger2Nub
                                                {
OFFSET -0 -2.547 0.000
						CHANNELS 3 Xrotation Yrotation Zrotation
                                                    End Site
                                                    {
OFFSET 0 -2.031 0
                                                    }
                                                }
                                            }
                                        }
                                    }
                                    JOINT LeftFinger3
                                    {
OFFSET -0.553 -3.461 -0.133
						CHANNELS 3 Xrotation Yrotation Zrotation
                                        JOINT LeftFinger31
                                        {
OFFSET 0.023 -4.767 -0.493
						CHANNELS 3 Xrotation Yrotation Zrotation
                                            JOINT LeftFinger32
                                            {
OFFSET -0 -3.541 0.000
						CHANNELS 3 Xrotation Yrotation Zrotation
                                                JOINT LeftFinger3Nub
                                                {
OFFSET -0 -2.456 0.000
						CHANNELS 3 Xrotation Yrotation Zrotation
                                                    End Site
                                                    {
OFFSET 0 -1.91 0
                                                    }
                                                }
                                            }
                                        }
                                    }
                                    JOINT LeftFinger4
                                    {
OFFSET -0.483 -3.251 -1.236
						CHANNELS 3 Xrotation Yrotation Zrotation
                                        JOINT LeftFinger41
                                        {
OFFSET 0.023 -4.259 -1.122
						CHANNELS 3 Xrotation Yrotation Zrotation
                                            JOINT LeftFinger42
                                            {
OFFSET -0 -2.835 0.000
						CHANNELS 3 Xrotation Yrotation Zrotation
                                                JOINT LeftFinger4Nub
                                                {
OFFSET -0 -1.792 0.000
						CHANNELS 3 Xrotation Yrotation Zrotation
                                                    End Site
                                                    {
OFFSET 0 -1.692 0
                                                    }
                                                }
                                            }
                                        }
                                    }
                                }
                            }
                        }
                    }
                }
            }
        }
    }
}
MOTION

Frames: 6
Frame Time: 0.017
-217.63 93.17 -15.16 94.93 1.86 -3.39 -2.58 -7.12 3.71 -0.00 21.25 -0.00 -8.58 -13.39 -0.47 -8.98 -12.78 5.78 0.00 28.93 0.00 10.81 -18.21 -4.43 -6.12 2.90 1.85 -1.52 0.69 0.49 -2.51 1.15 0.81 1.23 -1.14 0.69 1.24 -1.21 0.69 17.77 -32.89 8.90 8.18 -7.05 2.00 -20.08 1.81 -13.04 -4.76 22.39 9.69 -0.26 6.68 -1.05 -50.6 -0 21.50 9.33 -0 -8.32 20.62 -0 0.00 0 -0 0.00 -15 -0 18.96 0 -0 0.85 0 -0 0.43 0 -0 0.00 0 -0 17.90 0 -0 17.90 0 -0 17.90 0 -0 0.00 15 -0 14.56 0 -0 14.56 0 -0 14.56 0 -0 0.00 25 -0 4.48 0 -0 4.48 0 -0 4.48 -5.58 -7.29 -7.51 6.69 -6.19 22.94 -8.81 -21.8 -9.57 6.62 2.66 -5.35 -14.13 0 -31.57 -18.21 0 12.64 17.90 0 0.00 0.00 0 0.00 -15.00 0 -15.40 0.00 0 -1.27 0.00 0 -0.64 0.00 0 0.00 0.00 0 -13.01 0.00 0 -13.01 0.00 0 -13.01 0.00 0 0.00 15.00 0 -19.28 0.00 0 -19.28 0.00 0 -19.28 0.00 0 0.00 25.00 0 -18.65 0.00 0 -18.65 0.00 0 -18.65 
-217.49 93.18 -15.33 94.89 1.81 -3.44 -2.51 -6.87 3.65 0.00 21.04 -0.00 -8.61 -13.29 -0.38 -8.85 -12.67 5.69 0.00 28.99 -0.00 10.76 -18.37 -4.30 -6.11 2.98 1.81 -1.52 0.71 0.48 -2.51 1.18 0.79 1.23 -1.15 0.68 1.23 -1.21 0.69 17.72 -33.05 8.81 8.10 -7.15 2.05 -19.98 1.91 -13.08 -4.94 22.45 9.81 -0.18 6.43 -0.88 -50.6 -0 21.51 9.33 -0 -8.31 20.66 -0 0.00 0 -0 0.00 -15 -0 18.82 0 -0 1.05 0 -0 0.53 0 -0 0.00 0 -0 17.90 0 -0 17.90 0 -0 17.90 0 -0 0.00 15 -0 14.67 0 -0 14.67 0 -0 14.67 0 -0 0.00 25 -0 4.47 0 -0 4.47 0 -0 4.47 -5.61 -7.30 -7.51 6.67 -6.29 23.06 -8.95 -21.62 -9.66 6.28 2.55 -5.31 -14.06 0 -31.50 -18.09 0 12.72 17.95 0 0.00 0.00 0 0.00 -15.00 0 -15.78 0.00 0 -1.09 0.00 0 -0.54 0.00 0 0.00 0.00 0 -13.06 0.00 0 -13.06 0.00 0 -13.06 0.00 0 0.00 15.00 0 -19.05 0.00 0 -19.05 0.00 0 -19.05 0.00 0 0.00 25.00 0 -18.92 0.00 0 -18.92 0.00 0 -18.92 
-217.37 93.19 -15.45 94.89 1.81 -3.44 -2.43 -6.72 3.57 0.00 20.90 0.00 -8.67 -13.29 -0.29 -8.80 -12.59 5.60 0.00 28.96 0.00 10.73 -18.44 -4.22 -6.11 2.98 1.81 -1.52 0.71 0.48 -2.51 1.18 0.79 1.23 -1.15 0.68 1.23 -1.21 0.69 17.72 -33.05 8.81 8.10 -7.15 2.05 -19.98 1.91 -13.08 -4.94 22.45 9.81 -0.18 6.43 -0.88 -50.6 -0 21.51 9.33 -0 -8.31 20.66 -0 0.00 0 -0 0.00 -15 -0 18.82 0 -0 1.05 0 -0 0.53 0 -0 0.00 0 -0 17.90 0 -0 17.90 0 -0 17.90 0 -0 0.00 15 -0 14.67 0 -0 14.67 0 -0 14.67 0 -0 0.00 25 -0 4.47 0 -0 4.47 0 -0 4.47 -5.61 -7.30 -7.51 6.67 -6.29 23.06 -8.95 -21.62 -9.66 6.28 2.55 -5.31 -14.06 0 -31.50 -18.09 0 12.72 17.95 0 0.00 0.00 0 0.00 -15.00 0 -12.60 0.00 0 0.40 0.00 0 0.20 0.00 0 0.00 0.00 0 -12.01 0.00 0 -12.01 0.00 0 -12.01 0.00 0 0.00 15.00 0 -15.75 0.00 0 -15.75 0.00 0 -15.75 0.00 0 0.00 25.00 0 -15.15 0.00 0 -15.15 0.00 0 -15.15 
-217.28 93.19 -15.55 94.89 1.81 -3.44 -2.37 -6.60 3.51 -0.00 20.78 -0.00 -8.71 -13.29 -0.21 -8.76 -12.52 5.52 -0.00 28.93 0.00 10.72 -18.49 -4.15 -6.11 2.98 1.81 -1.52 0.71 0.48 -2.51 1.18 0.79 1.23 -1.15 0.68 1.23 -1.21 0.69 17.72 -33.05 8.81 8.10 -7.15 2.05 -19.98 1.91 -13.08 -4.94 22.45 9.81 -0.18 6.43 -0.88 -50.6 -0 21.51 9.33 -0 -8.31 20.66 -0 0.00 0 -0 0.00 -15 -0 18.82 0 -0 1.05 0 -0 0.53 0 -0 0.00 0 -0 17.90 0 -0 17.90 0 -0 17.90 0 -0 0.00 15 -0 14.67 0 -0 14.67 0 -0 14.67 0 -0 0.00 25 -0 4.47 0 -0 4.47 0 -0 4.47 -5.61 -7.30 -7.51 6.67 -6.29 23.06 -8.95 -21.62 -9.66 6.28 2.55 -5.31 -14.06 0 -31.50 -18.09 0 12.72 17.95 0 0.00 0.00 0 0.00 -15.00 0 -12.67 0.00 0 -0.85 0.00 0 -0.42 0.00 0 0.00 0.00 0 -12.39 0.00 0 -12.39 0.00 0 -12.39 0.00 0 0.00 15.00 0 -17.34 0.00 0 -17.34 0.00 0 -17.34 0.00 0 0.00 25.00 0 -14.89 0.00 0 -14.89 0.00 0 -14.89 
-217.56 93.40 -15.58 94.89 1.81 -3.44 2.19 -5.67 3.89 -0.00 18.26 -0.00 -12.55 -13.74 -0.64 5.88 -15.21 4.55 -0.00 29.46 -0.00 7.22 -17.77 -4.76 -0.56 3.12 0.89 -0.14 0.78 0.22 -0.22 1.29 0.37 0.95 -1.24 0.55 0.95 -1.29 0.55 13.44 -31.91 7.25 -1.09 -7.86 4.16 -7.09 2.10 -14.69 -10.59 27.83 10.82 -4.36 6.9 3.84 -50.78 -0 20.76 8.97 -0 -9.07 28.83 -0 0.00 0 -0 0.00 -15 -0 21.17 0 -0 11.79 0 -0 5.90 0 -0 0.00 0 -0 10.99 0 -0 10.99 0 -0 10.99 0 -0 0.00 15 -0 13.76 0 -0 13.76 0 -0 13.76 0 -0 0.00 25 -0 7.01 0 -0 7.01 0 -0 7.01 -4.22 -5.28 -5.76 0.33 -8.17 29.34 -18.55 -26.04 -18.88 10.05 5.46 -7.56 -15.96 0 -32.94 -21.88 0 11.27 21.33 0 0.00 0.00 0 0.00 -15.00 0 -12.51 0.00 0 -2.16 0.00 0 -1.08 0.00 0 0.00 0.00 0 -12.59 0.00 0 -12.59 0.00 0 -12.59 0.00 0 0.00 15.00 0 -18.42 0.00 0 -18.42 0.00 0 -18.42 0.00 0 0.00 25.00 0 -14.68 0.00 0 -14.68 0.00 0 -14.68 
-217.70 93.36 -15.37 94.89 1.81 -3.44 2.43 -6.29 4.05 0.00 19.23 0.00 -12.87 -14.14 -0.63 5.57 -15.84 5.13 -0.00 29.19 0.00 7.14 -17.14 -5.38 -0.49 3.30 0.98 -0.12 0.82 0.25 -0.19 1.36 0.41 0.95 -1.24 0.55 0.96 -1.30 0.56 13.40 -32.19 7.30 -1.19 -8.14 4.01 -6.46 2.65 -14.23 -9.25 26.41 9.82 -4.24 6.82 2.97 -50.78 -0 20.82 8.98 -0 -9.00 27.45 -0 0.00 0 -0 0.00 -15 -0 20.79 0 -0 11.60 0 -0 5.80 0 -0 0.00 0 -0 11.59 0 -0 11.59 0 -0 11.59 0 -0 0.00 15 -0 13.45 0 -0 13.45 0 -0 13.45 0 -0 0.00 25 -0 6.58 0 -0 6.58 0 -0 6.58 -3.92 -5.54 -5.99 -0.02 -8.39 29.07 -17.80 -28.32 -17.66 9.15 7.11 -8.60 -15.00 0 -33.45 -19.96 0 10.76 20.95 0 0.00 0.00 0 0.00 -15.00 0 -12.07 0.00 0 -3.52 0.00 0 -1.76 0.00 0 0.00 0.00 0 -12.53 0.00 0 -12.53 0.00 0 -12.53 0.00 0 0.00 15.00 0 -19.04 0.00 0 -19.04 0.00 0 -19.04 0.00 0 0.00 25.00 0 -14.36 0.00 0 -14.36 0.00 0 -14.36 
